<?xml version="1.0" encoding="utf-8"?>
<!-- Generator: Adobe Illustrator 26.2.1, SVG Export Plug-In . SVG Version: 6.00 Build 0)  -->
<svg version="1.1" id="Layer_1" xmlns="http://www.w3.org/2000/svg" xmlns:xlink="http://www.w3.org/1999/xlink" x="0px" y="0px"
	 viewBox="0 0 401.6 111.1" style="enable-background:new 0 0 401.6 111.1;" xml:space="preserve">
<style type="text/css">
	.st0{fill:#001552;}
	.st1{fill:#EA47F7;}
</style>
<g>
	<path class="st0" d="M75.8,77.8L60.1,36.5h10.8L81.4,66l10.6-29.4h10.8L87,77.8H75.8z"/>
</g>
<g>
	<path class="st0" d="M114.7,77.8V36.5H125v41.2H114.7z"/>
</g>
<g>
	<path class="st0" d="M160.1,78.4c-7.2,0-12.7-1.8-16.5-5.5c-3.8-3.7-5.7-8.8-5.7-15.4c0-6.9,1.8-12.2,5.5-15.9
		c3.7-3.8,9.2-5.6,16.5-5.6c2.5,0,4.8,0.2,6.8,0.6s3.9,0.9,5.7,1.5v9c-3.7-1.5-7.6-2.3-11.7-2.3c-4.3,0-7.4,1-9.4,3.1s-3,5.3-3,9.7
		c0,4.2,1,7.3,3.1,9.2c2.1,2,5.2,2.9,9.3,2.9c2,0,4-0.2,6-0.5c2-0.4,3.9-0.9,5.7-1.7v9.1c-1.8,0.6-3.7,1.1-5.7,1.4
		C164.8,78.2,162.6,78.4,160.1,78.4z"/>
	<path class="st0" d="M204.1,78.4c-3.8,0-7.2-0.6-10-1.9c-2.8-1.2-5-3.1-6.6-5.5c-1.6-2.4-2.3-5.4-2.3-9V36.5h10.3v24.6
		c0,2.9,0.7,5,2.2,6.4c1.5,1.4,3.6,2.1,6.4,2.1c2.8,0,4.9-0.7,6.4-2.1c1.5-1.4,2.2-3.5,2.2-6.4V36.5H223v25.5c0,3.5-0.8,6.5-2.3,9
		c-1.6,2.4-3.8,4.3-6.6,5.5C211.3,77.8,207.9,78.4,204.1,78.4z"/>
	<path class="st0" d="M236.9,77.8V36.5h20.6c4.9,0,8.4,1.3,10.8,3.8c2.3,2.6,3.5,6,3.5,10.3c0,2.8-0.7,5.2-2.1,7.3
		c-1.4,2.1-3.3,3.6-5.8,4.7c0.6,0.5,1.1,1,1.4,1.6c0.4,0.6,0.8,1.4,1.2,2.4l4.9,11.1h-10.8L256,67.3c-0.4-0.9-0.9-1.5-1.5-2
		c-0.6-0.4-1.5-0.6-2.6-0.6h-4.7v13.1H236.9z M247.2,56.8h7.6c2,0,3.6-0.5,4.7-1.5c1.1-1,1.7-2.5,1.7-4.6c0-4.1-2-6.2-6-6.2h-8.1
		V56.8z"/>
	<path class="st0" d="M280.5,77.8l15.7-41.2h11.1l15.7,41.2h-10.8l-3.7-9.3h-13.8l-3.6,9.3H280.5z M296.3,60.8h10.9l-5.5-14.3
		L296.3,60.8z"/>
	<path class="st0" d="M346.2,78.4c-2.7,0-5.3-0.2-7.6-0.6c-2.4-0.4-4.4-1-6.1-1.8v-8.8c1.9,0.8,4,1.5,6.2,2c2.3,0.5,4.4,0.8,6.5,0.8
		c2.6,0,4.5-0.2,5.7-0.7c1.3-0.5,1.9-1.5,1.9-3.1c0-1.1-0.3-1.9-0.9-2.6c-0.6-0.6-1.6-1.2-3-1.7c-1.4-0.5-3.3-1.1-5.7-1.8
		c-2.8-0.9-5.1-1.8-6.7-2.8c-1.7-1-2.9-2.3-3.6-3.8c-0.7-1.5-1.1-3.3-1.1-5.5c0-3.9,1.4-6.9,4.2-9c2.8-2.1,7-3.1,12.5-3.1
		c2.4,0,4.7,0.2,7,0.5c2.3,0.4,4.1,0.8,5.5,1.2v8.8c-1.8-0.7-3.7-1.3-5.5-1.6c-1.9-0.3-3.7-0.5-5.4-0.5c-2.3,0-4.2,0.2-5.6,0.6
		c-1.4,0.4-2.1,1.4-2.1,2.9c0,0.9,0.3,1.6,0.8,2.1c0.5,0.5,1.4,1,2.7,1.4c1.3,0.4,3,0.9,5.2,1.5c3.4,0.9,6,2,7.7,3.2
		c1.8,1.3,3,2.7,3.7,4.4s1,3.5,1,5.5c0,3.6-1.4,6.6-4.2,8.8C356.4,77.3,352,78.4,346.2,78.4z"/>
</g>
<g>
	<path class="st1" d="M27.8,24.8v22.7h11.3c6.3,0,11.3-5.1,11.3-11.3V24.8H27.8z"/>
</g>
</svg>
